<?xml version="1.0" encoding="UTF-8" standalone="no"?>
<svg
   width="545"
   height="153"
   viewBox="0 0 545 153"
   fill="none"
   version="1.1"
   id="svg20"
   sodipodi:docname="bmc-button_custom.svg"
   inkscape:version="1.4.4 (dcaf3e7d9e, 2026-05-05)"
   xmlns:inkscape="http://www.inkscape.org/namespaces/inkscape"
   xmlns:sodipodi="http://sodipodi.sourceforge.net/DTD/sodipodi-0.dtd"
   xmlns="http://www.w3.org/2000/svg"
   xmlns:svg="http://www.w3.org/2000/svg">
  <defs
     id="defs20" />
  <sodipodi:namedview
     id="namedview20"
     pagecolor="#ffffff"
     bordercolor="#000000"
     borderopacity="0.25"
     inkscape:showpageshadow="2"
     inkscape:pageopacity="0.0"
     inkscape:pagecheckerboard="0"
     inkscape:deskcolor="#d1d1d1"
     inkscape:zoom="1.6165138"
     inkscape:cx="381.99489"
     inkscape:cy="76.708286"
     inkscape:window-width="1920"
     inkscape:window-height="1011"
     inkscape:window-x="0"
     inkscape:window-y="0"
     inkscape:window-maximized="1"
     inkscape:current-layer="svg20" />
  <path
     d="M0 24.48C0 10.9601 10.9601 0 24.48 0H520.2C533.72 0 544.68 10.9601 544.68 24.48V128.52C544.68 142.04 533.72 153 520.2 153H24.48C10.9601 153 0 142.04 0 128.52V24.48Z"
     fill="#FFDD00"
     id="path1"
     style="fill:#ff6600" />
  <path
     d="M109.522 50.3178L109.455 50.2783L109.299 50.2308C109.362 50.2836 109.44 50.3142 109.522 50.3178Z"
     fill="#0D0C22"
     id="path2" />
  <path
     d="M110.507 57.3134L110.432 57.3344L110.507 57.3134Z"
     fill="#0D0C22"
     id="path3" />
  <path
     d="M109.549 50.3062C109.54 50.3051 109.532 50.3031 109.524 50.3003C109.523 50.3058 109.523 50.3113 109.524 50.3168C109.533 50.3156 109.541 50.3119 109.549 50.3062Z"
     fill="#0D0C22"
     id="path4" />
  <path
     d="M109.523 50.3205H109.536V50.3127L109.523 50.3205Z"
     fill="#0D0C22"
     id="path5" />
  <path
     d="M110.447 57.3006L110.56 57.2361L110.602 57.2123L110.64 57.1715C110.569 57.2025 110.503 57.2462 110.447 57.3006Z"
     fill="#0D0C22"
     id="path6" />
  <path
     d="M109.715 50.4713L109.604 50.3659L109.529 50.3251C109.57 50.3963 109.636 50.4488 109.715 50.4713Z"
     fill="#0D0C22"
     id="path7" />
  <path
     d="M81.8801 118.353C81.7916 118.391 81.7142 118.451 81.6548 118.527L81.7246 118.482C81.772 118.439 81.8392 118.387 81.8801 118.353Z"
     fill="#0D0C22"
     id="path8" />
  <path
     d="M98.0456 115.173C98.0456 115.073 97.9968 115.091 98.0087 115.447C98.0087 115.418 98.0206 115.389 98.0258 115.361C98.0324 115.298 98.0377 115.236 98.0456 115.173Z"
     fill="#0D0C22"
     id="path9" />
  <path
     d="M96.3761 118.353C96.2877 118.391 96.2103 118.451 96.1509 118.527L96.2207 118.482C96.2681 118.439 96.3353 118.387 96.3761 118.353Z"
     fill="#0D0C22"
     id="path10" />
  <path
     d="M70.4886 119.11C70.4215 119.052 70.3393 119.013 70.2515 118.999C70.3226 119.034 70.3937 119.068 70.4412 119.094L70.4886 119.11Z"
     fill="#0D0C22"
     id="path11" />
  <path
     d="M67.9304 116.657C67.92 116.553 67.8881 116.453 67.8369 116.362C67.8732 116.456 67.9035 116.553 67.9278 116.652L67.9304 116.657Z"
     fill="#0D0C22"
     id="path12" />
  <path
     d="M85.1368 72.7737C81.6195 74.2794 77.628 75.9866 72.4549 75.9866C70.2908 75.9823 68.1373 75.6854 66.0527 75.104L69.6306 111.838C69.7572 113.373 70.4567 114.805 71.59 115.848C72.7233 116.892 74.2076 117.471 75.7482 117.47C75.7482 117.47 80.8212 117.734 82.514 117.734C84.3358 117.734 89.7988 117.47 89.7988 117.47C91.3391 117.47 92.8231 116.891 93.9562 115.848C95.0892 114.804 95.7885 113.373 95.9151 111.838L99.7472 71.2456C98.0347 70.6607 96.3064 70.2721 94.358 70.2721C90.9883 70.2708 88.2733 71.4313 85.1368 72.7737Z"
     fill="white"
     id="path13"
     style="fill:#ffffff" />
  <path
     d="M54.9844 57.1021L55.045 57.1587L55.0845 57.1824C55.0541 57.1522 55.0205 57.1252 54.9844 57.1021Z"
     fill="#0D0C22"
     id="path14" />
  <path
     d="M116.299 53.7119L115.761 50.9943C115.277 48.5559 114.18 46.2519 111.677 45.3706C110.875 45.0887 109.964 44.9675 109.349 44.384C108.734 43.8004 108.552 42.8941 108.41 42.0536C108.147 40.511 107.899 38.9671 107.629 37.4272C107.396 36.1033 107.211 34.616 106.604 33.4015C105.814 31.7706 104.174 30.8169 102.543 30.1859C101.707 29.8739 100.854 29.61 99.9884 29.3955C95.9139 28.3205 91.63 27.9253 87.4382 27.7001C82.407 27.4225 77.3623 27.5061 72.343 27.9504C68.6071 28.2902 64.6723 28.7013 61.1221 29.9935C59.8245 30.4665 58.4875 31.0342 57.5008 32.0367C56.2902 33.2684 55.895 35.1733 56.7789 36.7092C57.4073 37.8 58.4717 38.5706 59.6006 39.0804C61.0711 39.7373 62.6068 40.2371 64.1822 40.5716C68.5689 41.5412 73.1124 41.9219 77.5939 42.0839C82.561 42.2844 87.5362 42.1219 92.4796 41.5978C93.7021 41.4635 94.9224 41.3023 96.1405 41.1144C97.575 40.8944 98.4958 39.0185 98.073 37.7117C97.5671 36.1494 96.2077 35.5434 94.6703 35.7792C94.4438 35.8148 94.2185 35.8477 93.9919 35.8807L93.8286 35.9044C93.3078 35.9702 92.787 36.0317 92.2662 36.0888C91.1904 36.2047 90.112 36.2996 89.0309 36.3733C86.6097 36.5419 84.1818 36.6197 81.7553 36.6236C79.371 36.6236 76.9853 36.5564 74.6062 36.3997C73.5207 36.3285 72.4379 36.2381 71.3577 36.1283C70.8663 36.0769 70.3763 36.0229 69.8862 35.9623L69.4199 35.903L69.3185 35.8886L68.835 35.8187C67.847 35.6699 66.859 35.4986 65.8816 35.2918C65.783 35.2699 65.6947 35.2151 65.6315 35.1363C65.5683 35.0575 65.5338 34.9594 65.5338 34.8584C65.5338 34.7574 65.5683 34.6594 65.6315 34.5806C65.6947 34.5018 65.783 34.4469 65.8816 34.425H65.9C66.7471 34.2445 67.6007 34.0904 68.4569 33.956C68.7424 33.9113 69.0287 33.8673 69.3158 33.8243H69.3237C69.8599 33.7887 70.3987 33.6926 70.9322 33.6293C75.574 33.1465 80.2434 32.9819 84.9077 33.1367C87.1721 33.2025 89.4353 33.3356 91.6892 33.5648C92.174 33.6149 92.6562 33.6676 93.1383 33.7268C93.3227 33.7492 93.5085 33.7756 93.6942 33.798L94.0683 33.852C95.1591 34.0144 96.2441 34.2116 97.3234 34.4435C98.9227 34.7912 100.976 34.9045 101.688 36.6566C101.914 37.2125 102.017 37.8303 102.142 38.4139L102.302 39.1581C102.306 39.1715 102.309 39.1852 102.311 39.199C102.688 40.9554 103.065 42.7118 103.442 44.4683C103.47 44.598 103.471 44.7321 103.444 44.8621C103.418 44.9921 103.365 45.1153 103.289 45.2239C103.213 45.3326 103.115 45.4244 103.002 45.4936C102.889 45.5628 102.762 45.6079 102.631 45.6262H102.62L102.39 45.6578L102.162 45.6881C101.44 45.7821 100.717 45.8699 99.9936 45.9516C98.5683 46.114 97.1408 46.2546 95.711 46.3731C92.87 46.6094 90.0233 46.7644 87.1708 46.8381C85.7174 46.8768 84.2644 46.8948 82.8118 46.8921C77.0301 46.8876 71.2534 46.5516 65.5101 45.8857C64.8883 45.8119 64.2666 45.7329 63.6448 45.6525C64.1269 45.7145 63.2944 45.6051 63.1258 45.5814C62.7306 45.5261 62.3354 45.4686 61.9402 45.4088C60.6136 45.2099 59.295 44.9649 57.9711 44.7502C56.3705 44.4867 54.8398 44.6185 53.3921 45.4088C52.2037 46.0591 51.2419 47.0564 50.6349 48.2674C50.0105 49.5584 49.8248 50.964 49.5455 52.3511C49.2662 53.7383 48.8315 55.2308 48.9962 56.6548C49.3505 59.7281 51.4991 62.2258 54.5895 62.7843C57.4968 63.3112 60.42 63.7381 63.351 64.1016C74.8648 65.5118 86.4968 65.6805 98.0466 64.6049C98.9872 64.517 99.9265 64.4213 100.864 64.3177C101.157 64.2855 101.454 64.3192 101.732 64.4165C102.01 64.5137 102.263 64.6719 102.472 64.8795C102.681 65.0872 102.842 65.339 102.941 65.6165C103.04 65.894 103.076 66.1902 103.046 66.4834L102.753 69.3261C102.164 75.0705 101.575 80.8145 100.986 86.558C100.371 92.5896 99.7521 98.6208 99.1295 104.651C98.9538 106.35 98.7782 108.048 98.6025 109.746C98.4339 111.417 98.4102 113.142 98.0927 114.794C97.5922 117.391 95.8335 118.987 93.2674 119.57C90.9164 120.105 88.5148 120.386 86.1038 120.408C83.431 120.422 80.7594 120.304 78.0866 120.318C75.2333 120.334 71.7384 120.071 69.5358 117.947C67.6007 116.082 67.3333 113.161 67.0698 110.636C66.7185 107.293 66.3703 103.95 66.0252 100.607L64.0887 82.0212L62.8359 69.9953C62.8149 69.7964 62.7938 69.6001 62.774 69.3999C62.6239 67.9654 61.6082 66.5611 60.0077 66.6335C58.6376 66.6941 57.0806 67.8586 57.2413 69.3999L58.17 78.3155L60.0906 96.7581C60.6378 101.997 61.1836 107.236 61.7281 112.476C61.8335 113.48 61.9323 114.487 62.0429 115.49C62.6449 120.976 66.834 123.932 72.0216 124.764C75.0515 125.252 78.1551 125.352 81.2297 125.402C85.1711 125.465 89.1521 125.617 93.029 124.903C98.7738 123.849 103.084 120.013 103.699 114.062C103.875 112.345 104.051 110.626 104.226 108.908C104.81 103.224 105.393 97.5397 105.976 91.855L107.88 73.2807L108.754 64.7682C108.797 64.3461 108.976 63.9492 109.262 63.6363C109.549 63.3234 109.929 63.111 110.345 63.0307C111.988 62.7105 113.558 62.1639 114.727 60.9137C116.587 58.9232 116.957 56.3281 116.299 53.7119ZM54.5052 55.5483C54.5302 55.5364 54.4841 55.7511 54.4644 55.8513C54.4604 55.6998 54.4683 55.5654 54.5052 55.5483ZM54.6646 56.7813C54.6778 56.7721 54.7173 56.8248 54.7581 56.888C54.6962 56.83 54.6567 56.7866 54.6633 56.7813H54.6646ZM54.8214 56.9881C54.878 57.0843 54.9083 57.1449 54.8214 56.9881V56.9881ZM55.1362 57.2437H55.1441C55.1441 57.2529 55.1586 57.2621 55.1639 57.2713C55.1551 57.2612 55.1454 57.2519 55.1349 57.2437H55.1362ZM110.269 56.8616C109.679 57.4228 108.789 57.6837 107.911 57.8141C98.0572 59.2763 88.06 60.0166 78.0984 59.6899C70.9691 59.4462 63.9148 58.6545 56.8566 57.6573C56.165 57.5598 55.4155 57.4334 54.9399 56.9236C54.0441 55.9619 54.4841 54.0254 54.7173 52.8636C54.9307 51.7992 55.3391 50.3804 56.605 50.2289C58.581 49.9971 60.8758 50.8309 62.8307 51.1273C65.1843 51.4865 67.5467 51.7741 69.9179 51.9902C80.0375 52.9123 90.3271 52.7687 100.402 51.4198C102.238 51.173 104.068 50.8863 105.891 50.5596C107.516 50.2684 109.316 49.7218 110.298 51.404C110.971 52.55 111.06 54.0834 110.956 55.3783C110.924 55.9425 110.678 56.4732 110.267 56.8616H110.269Z"
     fill="#0D0C22"
     id="path15"
     style="fill:#ffffff" />
  <text
     xml:space="preserve"
     style="font-size:44.8377px;font-family:FreeSerif;-inkscape-font-specification:'FreeSerif, Normal';letter-spacing:1.05088px;word-spacing:2.10177px;writing-mode:lr-tb;direction:ltr;fill:#ffffff;stroke-width:1.58874;stroke-linejoin:round"
     x="127.35735"
     y="90.920532"
     id="text20"><tspan
       sodipodi:role="line"
       id="tspan20"
       x="127.35735"
       y="90.920532"
       style="font-style:normal;font-variant:normal;font-weight:bold;font-stretch:normal;font-size:44.8377px;font-family:Carlito;-inkscape-font-specification:'Carlito, Bold';font-variant-ligatures:normal;font-variant-caps:normal;font-variant-numeric:normal;font-variant-east-asian:normal;letter-spacing:1.05088px;word-spacing:2.10177px;fill:#ffffff;stroke-width:1.58874"><tspan
   style="font-style:normal;font-variant:normal;font-weight:bold;font-stretch:normal;font-size:44.8377px;font-family:Carlito;-inkscape-font-specification:'Carlito, Bold';font-variant-ligatures:normal;font-variant-caps:normal;font-variant-numeric:normal;font-variant-east-asian:normal;letter-spacing:1.05088px;word-spacing:2.10177px;fill:#ffffff;stroke-width:1.58874"
   id="tspan21"
   dx="0 0 0 0 0 0 0 0 0 0 0 0">a coffee for Bastien</tspan> </tspan></text>
</svg>
